<mxfile host="app.diagrams.net" modified="2023-10-18T16:14:49.299Z" agent="Mozilla/5.0 (Macintosh; Intel Mac OS X 10_15_7) AppleWebKit/605.1.15 (KHTML, like Gecko) Version/17.0 Safari/605.1.15" etag="GNS1NJBLMuQ9o1vf0bNr" version="22.0.4" type="github">
  <diagram id="R2lEEEUBdFMjLlhIrx00" name="Page-1">
    <mxGraphModel dx="954" dy="647" grid="1" gridSize="10" guides="1" tooltips="1" connect="1" arrows="1" fold="1" page="1" pageScale="1" pageWidth="850" pageHeight="1100" math="0" shadow="0" extFonts="Permanent Marker^https://fonts.googleapis.com/css?family=Permanent+Marker">
      <root>
        <mxCell id="0" />
        <mxCell id="1" parent="0" />
        <mxCell id="PkmYTVWjFRIUk0D2hP3R-5" value="Users" style="swimlane;childLayout=stackLayout;horizontal=1;startSize=50;horizontalStack=0;rounded=1;fontSize=14;fontStyle=0;strokeWidth=2;resizeParent=0;resizeLast=1;shadow=0;dashed=0;align=center;arcSize=4;whiteSpace=wrap;html=1;" vertex="1" parent="1">
          <mxGeometry x="40" y="280" width="160" height="200" as="geometry" />
        </mxCell>
        <mxCell id="PkmYTVWjFRIUk0D2hP3R-6" value="User_ID&lt;br&gt;User image&lt;br&gt;identification&lt;br&gt;firstname&lt;br&gt;telephone&lt;br&gt;username&lt;br&gt;email&lt;br&gt;password&lt;br&gt;&lt;br&gt;" style="align=left;strokeColor=none;fillColor=none;spacingLeft=4;fontSize=12;verticalAlign=top;resizable=0;rotatable=0;part=1;html=1;" vertex="1" parent="PkmYTVWjFRIUk0D2hP3R-5">
          <mxGeometry y="50" width="160" height="150" as="geometry" />
        </mxCell>
        <mxCell id="PkmYTVWjFRIUk0D2hP3R-14" value="Houses" style="swimlane;childLayout=stackLayout;horizontal=1;startSize=50;horizontalStack=0;rounded=1;fontSize=14;fontStyle=0;strokeWidth=2;resizeParent=0;resizeLast=1;shadow=0;dashed=0;align=center;arcSize=4;whiteSpace=wrap;html=1;" vertex="1" parent="1">
          <mxGeometry x="650" y="280" width="150" height="200" as="geometry" />
        </mxCell>
        <mxCell id="PkmYTVWjFRIUk0D2hP3R-15" value="house_ID&lt;br&gt;house image&lt;br&gt;house name&lt;br&gt;size&lt;br&gt;bedrooms&lt;br&gt;town&lt;br&gt;county&lt;br&gt;status&lt;br&gt;amenities&lt;br&gt;&lt;br&gt;" style="align=left;strokeColor=none;fillColor=none;spacingLeft=4;fontSize=12;verticalAlign=top;resizable=0;rotatable=0;part=1;html=1;" vertex="1" parent="PkmYTVWjFRIUk0D2hP3R-14">
          <mxGeometry y="50" width="150" height="150" as="geometry" />
        </mxCell>
        <mxCell id="PkmYTVWjFRIUk0D2hP3R-19" value="Users_House" style="swimlane;childLayout=stackLayout;horizontal=1;startSize=50;horizontalStack=0;rounded=1;fontSize=14;fontStyle=0;strokeWidth=2;resizeParent=0;resizeLast=1;shadow=0;dashed=0;align=center;arcSize=4;whiteSpace=wrap;html=1;" vertex="1" parent="1">
          <mxGeometry x="345" y="80" width="160" height="120" as="geometry" />
        </mxCell>
        <mxCell id="PkmYTVWjFRIUk0D2hP3R-20" value="User_ID&lt;br&gt;house_ID&lt;br&gt;User_code&lt;br&gt;&lt;br&gt;&lt;br&gt;&lt;br&gt;" style="align=left;strokeColor=none;fillColor=none;spacingLeft=4;fontSize=12;verticalAlign=top;resizable=0;rotatable=0;part=1;html=1;" vertex="1" parent="PkmYTVWjFRIUk0D2hP3R-19">
          <mxGeometry y="50" width="160" height="70" as="geometry" />
        </mxCell>
        <mxCell id="PkmYTVWjFRIUk0D2hP3R-21" value="" style="edgeStyle=entityRelationEdgeStyle;fontSize=12;html=1;endArrow=ERoneToMany;rounded=0;entryX=-0.013;entryY=0.085;entryDx=0;entryDy=0;entryPerimeter=0;exitX=1;exitY=0.142;exitDx=0;exitDy=0;exitPerimeter=0;" edge="1" parent="1" source="PkmYTVWjFRIUk0D2hP3R-19" target="PkmYTVWjFRIUk0D2hP3R-14">
          <mxGeometry width="100" height="100" relative="1" as="geometry">
            <mxPoint x="380" y="300" as="sourcePoint" />
            <mxPoint x="480" y="200" as="targetPoint" />
          </mxGeometry>
        </mxCell>
        <mxCell id="PkmYTVWjFRIUk0D2hP3R-22" value="" style="edgeStyle=entityRelationEdgeStyle;fontSize=12;html=1;endArrow=ERoneToMany;rounded=0;entryX=0.994;entryY=0.14;entryDx=0;entryDy=0;entryPerimeter=0;exitX=0;exitY=0.167;exitDx=0;exitDy=0;exitPerimeter=0;" edge="1" parent="1" source="PkmYTVWjFRIUk0D2hP3R-19" target="PkmYTVWjFRIUk0D2hP3R-5">
          <mxGeometry width="100" height="100" relative="1" as="geometry">
            <mxPoint x="380" y="300" as="sourcePoint" />
            <mxPoint x="480" y="200" as="targetPoint" />
          </mxGeometry>
        </mxCell>
      </root>
    </mxGraphModel>
  </diagram>
</mxfile>
